<mxfile host="65bd71144e">
    <diagram id="Tn8--vT5FOZ04RQB3SIo" name="Страница 1">
        <mxGraphModel dx="955" dy="736" grid="1" gridSize="10" guides="1" tooltips="1" connect="1" arrows="1" fold="1" page="1" pageScale="1" pageWidth="827" pageHeight="1169" math="0" shadow="0">
            <root>
                <mxCell id="0"/>
                <mxCell id="1" parent="0"/>
                <mxCell id="4" value="" style="edgeStyle=none;html=1;" edge="1" parent="1" source="2" target="3">
                    <mxGeometry relative="1" as="geometry"/>
                </mxCell>
                <mxCell id="2" value="Start" style="ellipse;whiteSpace=wrap;html=1;" vertex="1" parent="1">
                    <mxGeometry x="354" y="30" width="120" height="40" as="geometry"/>
                </mxCell>
                <mxCell id="14" value="" style="edgeStyle=none;html=1;" edge="1" parent="1" source="3" target="13">
                    <mxGeometry relative="1" as="geometry"/>
                </mxCell>
                <mxCell id="3" value="array[]" style="shape=parallelogram;perimeter=parallelogramPerimeter;whiteSpace=wrap;html=1;fixedSize=1;" vertex="1" parent="1">
                    <mxGeometry x="355" y="100" width="120" height="60" as="geometry"/>
                </mxCell>
                <mxCell id="11" value="Yes" style="edgeStyle=none;html=1;" edge="1" parent="1" source="5" target="7">
                    <mxGeometry relative="1" as="geometry">
                        <mxPoint x="240" y="230" as="targetPoint"/>
                        <Array as="points">
                            <mxPoint x="240" y="390"/>
                            <mxPoint x="240" y="290"/>
                        </Array>
                    </mxGeometry>
                </mxCell>
                <mxCell id="17" value="No" style="edgeStyle=none;html=1;" edge="1" parent="1" source="5" target="16">
                    <mxGeometry relative="1" as="geometry"/>
                </mxCell>
                <mxCell id="5" value="array[i].length &amp;gt; 3" style="rhombus;whiteSpace=wrap;html=1;" vertex="1" parent="1">
                    <mxGeometry x="286" y="350" width="256" height="80" as="geometry"/>
                </mxCell>
                <mxCell id="10" style="edgeStyle=none;html=1;" edge="1" parent="1" source="7" target="5">
                    <mxGeometry relative="1" as="geometry"/>
                </mxCell>
                <mxCell id="19" style="edgeStyle=none;html=1;entryX=0.5;entryY=0;entryDx=0;entryDy=0;" edge="1" parent="1" source="7" target="20">
                    <mxGeometry relative="1" as="geometry">
                        <mxPoint x="415" y="630" as="targetPoint"/>
                        <Array as="points">
                            <mxPoint x="560" y="290"/>
                            <mxPoint x="560" y="580"/>
                            <mxPoint x="415" y="580"/>
                        </Array>
                    </mxGeometry>
                </mxCell>
                <mxCell id="7" value="&lt;span style=&quot;color: rgb(240 , 240 , 240) ; font-family: &amp;#34;helvetica&amp;#34; ; font-size: 12px ; font-style: normal ; font-weight: 400 ; letter-spacing: normal ; text-align: center ; text-indent: 0px ; text-transform: none ; word-spacing: 0px ; background-color: rgb(42 , 42 , 42) ; display: inline ; float: none&quot;&gt;i = 0; i &amp;lt; array.length; i++&lt;/span&gt;" style="shape=hexagon;perimeter=hexagonPerimeter2;whiteSpace=wrap;html=1;fixedSize=1;" vertex="1" parent="1">
                    <mxGeometry x="320" y="270" width="190" height="40" as="geometry"/>
                </mxCell>
                <mxCell id="15" value="" style="edgeStyle=none;html=1;" edge="1" parent="1" source="13" target="7">
                    <mxGeometry relative="1" as="geometry"/>
                </mxCell>
                <mxCell id="13" value="newArray[array.length]&lt;br&gt;j = 0" style="rounded=0;whiteSpace=wrap;html=1;" vertex="1" parent="1">
                    <mxGeometry x="340" y="190" width="150" height="60" as="geometry"/>
                </mxCell>
                <mxCell id="18" style="edgeStyle=none;html=1;entryX=0;entryY=0.5;entryDx=0;entryDy=0;" edge="1" parent="1" source="16" target="7">
                    <mxGeometry relative="1" as="geometry">
                        <mxPoint x="200" y="230" as="targetPoint"/>
                        <Array as="points">
                            <mxPoint x="415" y="560"/>
                            <mxPoint x="200" y="560"/>
                            <mxPoint x="200" y="290"/>
                        </Array>
                    </mxGeometry>
                </mxCell>
                <mxCell id="16" value="newArray[j] = array[i]&lt;br&gt;j += 1" style="whiteSpace=wrap;html=1;" vertex="1" parent="1">
                    <mxGeometry x="330" y="460" width="170" height="60" as="geometry"/>
                </mxCell>
                <mxCell id="22" value="" style="edgeStyle=none;html=1;" edge="1" parent="1" source="20" target="21">
                    <mxGeometry relative="1" as="geometry"/>
                </mxCell>
                <mxCell id="20" value="resArray[j]" style="rounded=0;whiteSpace=wrap;html=1;" vertex="1" parent="1">
                    <mxGeometry x="355" y="620" width="120" height="60" as="geometry"/>
                </mxCell>
                <mxCell id="24" value="" style="edgeStyle=none;html=1;" edge="1" parent="1" source="21" target="23">
                    <mxGeometry relative="1" as="geometry"/>
                </mxCell>
                <mxCell id="26" style="edgeStyle=none;html=1;" edge="1" parent="1" source="21" target="27">
                    <mxGeometry relative="1" as="geometry">
                        <mxPoint x="414" y="940" as="targetPoint"/>
                        <Array as="points">
                            <mxPoint x="520" y="730"/>
                            <mxPoint x="520" y="900"/>
                            <mxPoint x="414" y="900"/>
                        </Array>
                    </mxGeometry>
                </mxCell>
                <mxCell id="21" value="i = 0; i &amp;lt; j; i++" style="shape=hexagon;perimeter=hexagonPerimeter2;whiteSpace=wrap;html=1;fixedSize=1;rounded=0;" vertex="1" parent="1">
                    <mxGeometry x="354" y="710" width="120" height="40" as="geometry"/>
                </mxCell>
                <mxCell id="25" style="edgeStyle=none;html=1;entryX=0;entryY=0.5;entryDx=0;entryDy=0;" edge="1" parent="1" source="23" target="21">
                    <mxGeometry relative="1" as="geometry">
                        <mxPoint x="310" y="680" as="targetPoint"/>
                        <Array as="points">
                            <mxPoint x="415" y="880"/>
                            <mxPoint x="310" y="880"/>
                            <mxPoint x="310" y="730"/>
                        </Array>
                    </mxGeometry>
                </mxCell>
                <mxCell id="23" value="resArray[j] = newArray[j]" style="whiteSpace=wrap;html=1;rounded=0;" vertex="1" parent="1">
                    <mxGeometry x="330" y="790" width="170" height="60" as="geometry"/>
                </mxCell>
                <mxCell id="29" value="" style="edgeStyle=none;html=1;entryX=0.5;entryY=0;entryDx=0;entryDy=0;" edge="1" parent="1" target="28">
                    <mxGeometry relative="1" as="geometry">
                        <mxPoint x="380" y="1010" as="sourcePoint"/>
                        <mxPoint x="460" y="1030" as="targetPoint"/>
                        <Array as="points">
                            <mxPoint x="380" y="1030"/>
                            <mxPoint x="414" y="1030"/>
                        </Array>
                    </mxGeometry>
                </mxCell>
                <mxCell id="27" value="resArray" style="shape=document;whiteSpace=wrap;html=1;boundedLbl=1;" vertex="1" parent="1">
                    <mxGeometry x="354" y="930" width="120" height="80" as="geometry"/>
                </mxCell>
                <mxCell id="28" value="End" style="ellipse;whiteSpace=wrap;html=1;" vertex="1" parent="1">
                    <mxGeometry x="354" y="1050" width="120" height="60" as="geometry"/>
                </mxCell>
            </root>
        </mxGraphModel>
    </diagram>
</mxfile>